<svg fill="#14b8a6" width="100%" height="100%" viewBox="0 0 64 64" version="1.1" xmlns="http://www.w3.org/2000/svg" xmlns:xlink="http://www.w3.org/1999/xlink" xml:space="preserve" xmlns:serif="http://www.serif.com/" style="fill-rule:evenodd;clip-rule:evenodd;stroke-linejoin:round;stroke-miterlimit:2;">
    <g transform="matrix(4,0,0,4,0,0)">
        <g transform="matrix(1,0,0,1,1.7471,-2.25921)">
            <path d="M7.354,5.646C7.26,5.552 7.133,5.499 7,5.499C6.867,5.499 6.74,5.552 6.646,5.646L4.646,7.646C4.552,7.74 4.499,7.867 4.499,8C4.499,8.133 4.552,8.26 4.646,8.354L6.646,10.354C6.74,10.448 6.867,10.501 7,10.501C7.275,10.501 7.501,10.275 7.501,10C7.501,9.867 7.448,9.74 7.354,9.646L5.707,8L7.354,6.354C7.448,6.26 7.501,6.133 7.501,6C7.501,5.867 7.448,5.74 7.354,5.646Z"/>
        </g>
        <path d="M3,0L13,0C14.097,-0 15,0.903 15,2L15,14C15,15.097 14.097,16 13,16L3,16C1.903,16 1,15.097 1,14L1,13L2,13L2,14C2,14.549 2.451,15 3,15L13,15C13.549,15 14,14.549 14,14L14,2C14,1.451 13.549,1 13,1L3,1C2.451,1 2,1.451 2,2L2,3L1,3L1,2C1,0.903 1.903,0 3,0Z" style="fill-rule:nonzero;"/>
        <path d="M1,5L1,4.5C1,4.226 1.226,4 1.5,4C1.774,4 2,4.226 2,4.5L2,5L2.5,5C2.774,5 3,5.226 3,5.5C3,5.774 2.774,6 2.5,6L0.5,6C0.226,6 0,5.774 0,5.5C-0,5.226 0.226,5 0.5,5L1,5ZM1,8L1,7.5C1,7.226 1.226,7 1.5,7C1.774,7 2,7.226 2,7.5L2,8L2.5,8C2.774,8 3,8.226 3,8.5C3,8.774 2.774,9 2.5,9L0.5,9C0.226,9 0,8.774 0,8.5C-0,8.226 0.226,8 0.5,8L1,8ZM1,11L1,10.5C1,10.226 1.226,10 1.5,10C1.774,10 2,10.226 2,10.5L2,11L2.5,11C2.774,11 3,11.226 3,11.5C3,11.774 2.774,12 2.5,12L0.5,12C0.226,12 0,11.774 0,11.5C-0,11.226 0.226,11 0.5,11L1,11Z" style="fill-rule:nonzero;"/>
        <g transform="matrix(1,0,0,1,0.223234,3.18648)">
            <path d="M10.854,6.146C10.948,6.24 11.001,6.367 11.001,6.5C11.001,6.633 10.948,6.76 10.854,6.854L7.854,9.854C7.76,9.948 7.633,10.001 7.5,10.001C7.367,10.001 7.24,9.948 7.146,9.854L5.646,8.354C5.552,8.26 5.499,8.133 5.499,8C5.499,7.725 5.725,7.499 6,7.499C6.133,7.499 6.26,7.552 6.354,7.646L7.5,8.793L10.146,6.146C10.24,6.052 10.367,5.999 10.5,5.999C10.633,5.999 10.76,6.052 10.854,6.146Z"/>
        </g>
    </g>
</svg>
